<?xml version="1.0" encoding="UTF-8"?>
<svg version="1.1" xmlns="http://www.w3.org/2000/svg" width="49" height="64">
<path d="M0 0 C0.99 0.33 1.98 0.66 3 1 C3 1.99 3 2.98 3 4 C4.65 4 6.3 4 8 4 C7.67 4.99 7.34 5.98 7 7 C7.56847656 7.1959375 8.13695313 7.391875 8.72265625 7.59375 C15.86834862 10.36136374 20.72200845 14.28188227 24.09765625 21.2734375 C26.97572939 29.11786011 26.38290348 35.15506225 23.15234375 42.77734375 C21.81628856 45.35434511 20.07510018 46.996455 18 49 C17.24662241 51.93685156 17.24662241 51.93685156 17 55 C16.6875 57.75 16.6875 57.75 16 60 C9.49417107 64.31164606 -0.62742064 63.29246473 -8.09765625 62.546875 C-10.69699242 61.79963257 -12.09895207 60.94228542 -14 59 C-14.609375 56.08203125 -14.609375 56.08203125 -14.75 52.8125 C-14.80671875 51.72582031 -14.8634375 50.63914063 -14.921875 49.51953125 C-14.94765625 48.68808594 -14.9734375 47.85664062 -15 47 C-15.66 47 -16.32 47 -17 47 C-17.33 45.68 -17.66 44.36 -18 43 C-18.66 43 -19.32 43 -20 43 C-23.05275905 33.44781845 -23.0708191 27.2124573 -19.9375 17.8125 C-16.79431755 13.2498158 -12.10030329 8.94863981 -6.71484375 7.30078125 C-6.14894531 7.20152344 -5.58304688 7.10226563 -5 7 C-5.33 6.01 -5.66 5.02 -6 4 C-4.35 4 -2.7 4 -1 4 C-0.67 2.68 -0.34 1.36 0 0 Z M10 53 C10 53.66 10 54.32 10 55 C10.66 54.67 11.32 54.34 12 54 C11.34 53.67 10.68 53.34 10 53 Z " fill="#963E1C" transform="translate(23,1)"/>
<path d="M0 0 C0.99 0.33 1.98 0.66 3 1 C3 1.99 3 2.98 3 4 C4.65 4 6.3 4 8 4 C7.67 4.99 7.34 5.98 7 7 C7.99 7.66 8.98 8.32 10 9 C9.01 9.33 8.02 9.66 7 10 C7 10.66 7 11.32 7 12 C6.34 12 5.68 12 5 12 C5 12.66 5 13.32 5 14 C5.66 14.33 6.32 14.66 7 15 C5.68 15 4.36 15 3 15 C3 16.32 3 17.64 3 19 C2.34 19 1.68 19 1 19 C1 20.65 1 22.3 1 24 C0.67 24 0.34 24 0 24 C0 20.7 0 17.4 0 14 C-3.45411499 14.70079254 -3.45411499 14.70079254 -7 16 C-8.20882096 18.00016466 -8.20882096 18.00016466 -9 20 C-11.125 20.75 -11.125 20.75 -13 21 C-13 22.32 -13 23.64 -13 25 C-13.66 25 -14.32 25 -15 25 C-14.74638098 32.01256579 -14.37509996 37.35842374 -10 43 C-7.72585273 44.6397285 -5.54490125 45.77648978 -3 47 C-2.34 46.34 -1.68 45.68 -1 45 C-0.01 44.34 0.98 43.68 2 43 C2 43.99 2 44.98 2 46 C4.31 46 6.62 46 9 46 C8.0022242 48.99332739 7.2477975 49.94766315 5 52 C5 50.68 5 49.36 5 48 C1.535 48.495 1.535 48.495 -2 49 C-2.33 51.31 -2.66 53.62 -3 56 C-1.02 56 0.96 56 3 56 C3.33 55.01 3.66 54.02 4 53 C4 53.99 4 54.98 4 56 C4.66 56 5.32 56 6 56 C6 55.34 6 54.68 6 54 C6.99 54 7.98 54 9 54 C9.33 52.68 9.66 51.36 10 50 C12.31 49.67 14.62 49.34 17 49 C17.10824843 50.6026782 17.18570645 52.20745748 17.25 53.8125 C17.29640625 54.70582031 17.3428125 55.59914062 17.390625 56.51953125 C17 59 17 59 15.40234375 60.77734375 C8.24729054 64.41885864 -2.27660586 63.49485048 -10 62 C-12.1953125 60.83984375 -12.1953125 60.83984375 -14 59 C-14.609375 56.08203125 -14.609375 56.08203125 -14.75 52.8125 C-14.80671875 51.72582031 -14.8634375 50.63914063 -14.921875 49.51953125 C-14.94765625 48.68808594 -14.9734375 47.85664062 -15 47 C-15.66 47 -16.32 47 -17 47 C-17.33 45.68 -17.66 44.36 -18 43 C-18.66 43 -19.32 43 -20 43 C-23.05275905 33.44781845 -23.0708191 27.2124573 -19.9375 17.8125 C-16.79431755 13.2498158 -12.10030329 8.94863981 -6.71484375 7.30078125 C-6.14894531 7.20152344 -5.58304688 7.10226563 -5 7 C-5.33 6.01 -5.66 5.02 -6 4 C-4.35 4 -2.7 4 -1 4 C-0.67 2.68 -0.34 1.36 0 0 Z M10 53 C10 53.66 10 54.32 10 55 C10.66 54.67 11.32 54.34 12 54 C11.34 53.67 10.68 53.34 10 53 Z " fill="#3B381A" transform="translate(23,1)"/>
<path d="M0 0 C3.72353119 -0.54301496 5.86106011 -0.7099885 9.10546875 1.3125 C15.25337904 6.47997431 18.82749474 11.23598347 20 19.25 C20.37958275 25.97139207 18.83408799 32.41174293 14.60546875 37.765625 C11.37571403 40.73120453 8.30552315 41.69246263 4 42 C3.67 42.99 3.34 43.98 3 45 C2.01 45 1.02 45 0 45 C0 45.66 0 46.32 0 47 C-2.97 47 -5.94 47 -9 47 C-8.67 44.69 -8.34 42.38 -8 40 C-5.6739143 39.61936779 -3.33944736 39.28730055 -1 39 C-0.67 39.33 -0.34 39.66 0 40 C5.2079189 36.13126025 10.48163036 31.52898945 12 25 C12.09588969 18.65929448 10.59588621 14.18230659 7 9 C6.01 8.34 5.02 7.68 4 7 C3.67 6.34 3.34 5.68 3 5 C2.01 4.34 1.02 3.68 0 3 C0 2.01 0 1.02 0 0 Z " fill="#A59119" transform="translate(29,10)"/>
<path d="M0 0 C0 4.95 0 9.9 0 15 C-4 14 -4 14 -6 11 C-6.125 7.8125 -6.125 7.8125 -6 5 C-6.28875 6.0725 -6.5775 7.145 -6.875 8.25 C-8 12 -8 12 -9.09375 13.875 C-10.29959604 16.70250106 -9.98593025 18.71818592 -9.625 21.75 C-9.51414062 22.73484375 -9.40328125 23.7196875 -9.2890625 24.734375 C-9.19367187 25.48203125 -9.09828125 26.2296875 -9 27 C-5.62537285 26.45276317 -3.91765 25.9451 -1 24 C-1 24.99 -1 25.98 -1 27 C0.65 27 2.3 27 4 27 C4.33 26.01 4.66 25.02 5 24 C5.33 24.99 5.66 25.98 6 27 C7.65 27 9.3 27 11 27 C11.66 24.03 12.32 21.06 13 18 C13.66 18 14.32 18 15 18 C14.67 15.69 14.34 13.38 14 11 C14.99 11.33 15.98 11.66 17 12 C18.03149653 24.70268874 18.03149653 24.70268874 14.4375 29.25 C11.25234078 32.29175158 8.4434783 33.08383921 4 33 C3.01 32.34 2.02 31.68 1 31 C-0.98 32.485 -0.98 32.485 -3 34 C-7.80265026 31.47044877 -11.88588366 29.06783539 -14.390625 24.11328125 C-15.62597444 19.82915275 -15.28696637 15.40812237 -15 11 C-14.34 11 -13.68 11 -13 11 C-13 9.68 -13 8.36 -13 7 C-10.6875 5.4375 -10.6875 5.4375 -8 4 C-6.98131338 3.01904252 -5.97648017 2.02297922 -5 1 C-3 0 -3 0 0 0 Z " fill="#BE231C" transform="translate(23,15)"/>
<path d="M0 0 C0.33 0.99 0.66 1.98 1 3 C3.31 3 5.62 3 8 3 C7.0022242 5.99332739 6.2477975 6.94766315 4 9 C4 7.68 4 6.36 4 5 C1.69 5.33 -0.62 5.66 -3 6 C-3.33 8.31 -3.66 10.62 -4 13 C-2.02 13 -0.04 13 2 13 C2.33 12.01 2.66 11.02 3 10 C3 10.99 3 11.98 3 13 C3.66 13 4.32 13 5 13 C5 12.34 5 11.68 5 11 C5.99 11 6.98 11 8 11 C8.33 9.68 8.66 8.36 9 7 C12.465 6.505 12.465 6.505 16 6 C16.10824843 7.6026782 16.18570645 9.20745748 16.25 10.8125 C16.29640625 11.70582031 16.3428125 12.59914063 16.390625 13.51953125 C16 16 16 16 14.40234375 17.77734375 C7.24729054 21.41885864 -3.27660586 20.49485048 -11 19 C-13.2265625 17.77734375 -13.2265625 17.77734375 -15 16 C-15.390625 13.51953125 -15.390625 13.51953125 -15.25 10.8125 C-15.21390625 9.91144531 -15.1778125 9.01039062 -15.140625 8.08203125 C-15.09421875 7.39496094 -15.0478125 6.70789062 -15 6 C-12.36 6.33 -9.72 6.66 -7 7 C-7 8.32 -7 9.64 -7 11 C-6.22197813 8.6984589 -6.22197813 8.6984589 -6 6 C-7.33153266 3.69495956 -7.33153266 3.69495956 -9 2 C-6.525 2.99 -6.525 2.99 -4 4 C-3.34 3.34 -2.68 2.68 -2 2 C-1.34 1.34 -0.68 0.68 0 0 Z M9 10 C9 10.66 9 11.32 9 12 C9.66 11.67 10.32 11.34 11 11 C10.34 10.67 9.68 10.34 9 10 Z " fill="#221D1A" transform="translate(24,44)"/>
<path d="M0 0 C1.23723976 2.47447952 1 4.2553349 1 7 C1.33 7.99 1.66 8.98 2 10 C2.99 10 3.98 10 5 10 C5.66 7.03 6.32 4.06 7 1 C7.66 1 8.32 1 9 1 C9 6.28 9 11.56 9 17 C9.66 17.33 10.32 17.66 11 18 C10.67 19.65 10.34 21.3 10 23 C8.35 23 6.7 23 5 23 C4.67 22.34 4.34 21.68 4 21 C3.5875 21.515625 3.175 22.03125 2.75 22.5625 C1 24 1 24 -1.0625 24.0625 C-3 23 -3 23 -4.25 20.375 C-5.05400985 16.75695569 -5.27883518 13.69456612 -5 10 C-4.34 9.01 -3.68 8.02 -3 7 C-2.32136945 5.0040278 -1.65358081 3.00431449 -1 1 C-0.67 0.67 -0.34 0.34 0 0 Z " fill="#92581D" transform="translate(17,19)"/>
<path d="M0 0 C0.99 0.33 1.98 0.66 3 1 C3 1.99 3 2.98 3 4 C4.65 4 6.3 4 8 4 C7.67 4.99 7.34 5.98 7 7 C7.99 7.66 8.98 8.32 10 9 C9.01 9.33 8.02 9.66 7 10 C7 10.66 7 11.32 7 12 C6.34 12 5.68 12 5 12 C5 12.66 5 13.32 5 14 C5.66 14.33 6.32 14.66 7 15 C5.68 15 4.36 15 3 15 C3 16.32 3 17.64 3 19 C2.34 19 1.68 19 1 19 C1 20.65 1 22.3 1 24 C0.67 24 0.34 24 0 24 C0 20.7 0 17.4 0 14 C-3.45411499 14.70079254 -3.45411499 14.70079254 -7 16 C-8.20882096 18.00016466 -8.20882096 18.00016466 -9 20 C-11.125 20.75 -11.125 20.75 -13 21 C-13 22.32 -13 23.64 -13 25 C-13.66 25 -14.32 25 -15 25 C-15.33 23.02 -15.66 21.04 -16 19 C-15.01 19.33 -14.02 19.66 -13 20 C-13 19.34 -13 18.68 -13 18 C-11.68 18 -10.36 18 -9 18 C-8.67 16.35 -8.34 14.7 -8 13 C-6.68 13.33 -5.36 13.66 -4 14 C-4 12.68 -4 11.36 -4 10 C-4.66 10 -5.32 10 -6 10 C-6.33 10.66 -6.66 11.32 -7 12 C-9.64860427 12.59355614 -12.29197322 12.74209269 -15 13 C-11.80009492 10.25722422 -8.99500618 8.3697164 -5 7 C-5.33 6.01 -5.66 5.02 -6 4 C-4.35 4 -2.7 4 -1 4 C-0.67 2.68 -0.34 1.36 0 0 Z " fill="#16130B" transform="translate(23,1)"/>
<path d="M0 0 C3.37034069 -0.41269478 5.96283197 -0.61607781 8.953125 1.16015625 C12.38207165 3.976791 15.10224901 6.51124504 16 11 C15.66666667 13 15.33333333 15 15 17 C15.83486387 19.80067065 15.83486387 19.80067065 17 22 C15.68 23.65 14.36 25.3 13 27 C12.90203125 26.28714844 12.8040625 25.57429688 12.703125 24.83984375 C11.7435225 18.69342427 10.58989352 14.11287864 7 9 C6.01 8.34 5.02 7.68 4 7 C3.67 6.34 3.34 5.68 3 5 C2.01 4.34 1.02 3.68 0 3 C0 2.01 0 1.02 0 0 Z " fill="#AE9919" transform="translate(29,10)"/>
<path d="M0 0 C0.33 0 0.66 0 1 0 C1 1.98 1 3.96 1 6 C1.66 6 2.32 6 3 6 C4.63093878 10.12531573 5.34940883 12.72687203 4 17 C2.9375 19.3125 2.9375 19.3125 2 21 C0.35 21 -1.3 21 -3 21 C-3.33 20.01 -3.66 19.02 -4 18 C-3.34 18 -2.68 18 -2 18 C-2.495 17.0925 -2.99 16.185 -3.5 15.25 C-5 12 -5 12 -5 8 C-4.360625 7.525625 -3.72125 7.05125 -3.0625 6.5625 C-0.74524791 5.13457038 -0.74524791 5.13457038 -0.25 2.3125 C-0.1675 1.549375 -0.085 0.78625 0 0 Z " fill="#AA8C23" transform="translate(32,21)"/>
<path d="M0 0 C0 1.32 0 2.64 0 4 C-0.99 4 -1.98 4 -3 4 C-3.66 5.32 -4.32 6.64 -5 8 C-6.32 8 -7.64 8 -9 8 C-9 8.66 -9 9.32 -9 10 C-9.99 10.495 -9.99 10.495 -11 11 C-10.9071875 12.175625 -10.9071875 12.175625 -10.8125 13.375 C-10.874375 14.24125 -10.93625 15.1075 -11 16 C-14 18 -14 18 -17 18 C-16.17429946 7.282744 -16.17429946 7.282744 -13.51953125 4.3828125 C-11.75 3.375 -11.75 3.375 -8 2 C-6.906875 1.5875 -5.81375 1.175 -4.6875 0.75 C-2 0 -2 0 0 0 Z " fill="#56812C" transform="translate(19,11)"/>
<path d="M0 0 C4.58218983 4.05594394 5.75231923 9.64703266 6.375 15.5625 C5.91136224 19.81251282 4.65695549 23.06473071 3 27 C2.67 26.01 2.34 25.02 2 24 C0.35 23.67 -1.3 23.34 -3 23 C-2.625 20.5625 -2.625 20.5625 -2 18 C-1.34 17.67 -0.68 17.34 0 17 C-0.020625 15.96875 -0.04125 14.9375 -0.0625 13.875 C0 10 0 10 0.5625 6.8125 C0.98458227 4.09911398 0.88613224 2.5599376 0 0 Z " fill="#9C891A" transform="translate(43,17)"/>
<path d="M0 0 C0 4.95 0 9.9 0 15 C-4 14 -4 14 -6 11 C-6.125 7.8125 -6.125 7.8125 -6 5 C-6.66 6.65 -7.32 8.3 -8 10 C-9.32 10 -10.64 10 -12 10 C-12 7 -12 7 -10.5390625 5.4296875 C-9.90742188 4.91664062 -9.27578125 4.40359375 -8.625 3.875 C-7.99851562 3.35679688 -7.37203125 2.83859375 -6.7265625 2.3046875 C-4.20465298 0.39899117 -3.24586611 0 0 0 Z " fill="#D5221F" transform="translate(23,15)"/>
<path d="M0 0 C0.33 0.99 0.66 1.98 1 3 C2.32 3 3.64 3 5 3 C4.125 7.75 4.125 7.75 3 10 C3.02305676 12.41256002 3.02305676 12.41256002 3.3125 15.0625 C3.39113281 15.96097656 3.46976563 16.85945313 3.55078125 17.78515625 C3.69902344 18.51605469 3.84726563 19.24695313 4 20 C4.66 20.33 5.32 20.66 6 21 C6.33 21.99 6.66 22.98 7 24 C3.34606128 23.08651532 2.04909326 22.06236171 -0.3125 19.0625 C-2.82903274 14.29220501 -2.34146346 9.24525809 -2 4 C-1.34 4 -0.68 4 0 4 C0 2.68 0 1.36 0 0 Z " fill="#CC221D" transform="translate(10,22)"/>
<path d="M0 0 C1.24518286 2.49036572 1 4.22621061 1 7 C1.19464844 7.77085938 1.38929687 8.54171875 1.58984375 9.3359375 C2.07174546 12.46600387 1.55796139 14.32611582 0.5625 17.3125 C0.27503906 18.19550781 -0.01242188 19.07851563 -0.30859375 19.98828125 C-0.65083984 20.98408203 -0.65083984 20.98408203 -1 22 C-1.99 21.67 -2.98 21.34 -4 21 C-5.33257403 11.58997722 -5.33257403 11.58997722 -4 7 C-3.67 7 -3.34 7 -3 7 C-2.690625 6.030625 -2.38125 5.06125 -2.0625 4.0625 C-1 1 -1 1 0 0 Z " fill="#A68322" transform="translate(17,19)"/>
<path d="M0 0 C2.475 0.495 2.475 0.495 5 1 C5 4.3 5 7.6 5 11 C3.02 11.99 3.02 11.99 1 13 C1.99 16.3 2.98 19.6 4 23 C3.34 23 2.68 23 2 23 C2 22.34 2 21.68 2 21 C1.34 21 0.68 21 0 21 C0 14.07 0 7.14 0 0 Z " fill="#E52320" transform="translate(26,16)"/>
<path d="M0 0 C0.33 0.33 0.66 0.66 1 1 C1.99 1 2.98 1 4 1 C4 2.65 4 4.3 4 6 C3.01 6 2.02 6 1 6 C1 6.66 1 7.32 1 8 C-1.97 8 -4.94 8 -8 8 C-7.67 5.69 -7.34 3.38 -7 1 C-2.25 0 -2.25 0 0 0 Z " fill="#947E22" transform="translate(28,49)"/>
<path d="M0 0 C0.66 0 1.32 0 2 0 C2.33 0.66 2.66 1.32 3 2 C3.99 2 4.98 2 6 2 C8.1875 3.625 8.1875 3.625 10 6 C10.25 9.25 10.25 9.25 10 12 C9.34 12 8.68 12 8 12 C8 10.68 8 9.36 8 8 C7.236875 8.20625 6.47375 8.4125 5.6875 8.625 C3 9 3 9 0 7 C0 6.01 0 5.02 0 4 C-0.66 4 -1.32 4 -2 4 C-2 3.34 -2 2.68 -2 2 C-1.34 2 -0.68 2 0 2 C0 1.34 0 0.68 0 0 Z " fill="#6E7F24" transform="translate(9,43)"/>
<path d="M0 0 C0.33 0.99 0.66 1.98 1 3 C3.31 3 5.62 3 8 3 C7.0022242 5.99332739 6.2477975 6.94766315 4 9 C4 7.68 4 6.36 4 5 C1.69 5.33 -0.62 5.66 -3 6 C-3.33 8.31 -3.66 10.62 -4 13 C-5.80929775 10.28605338 -6.26978778 9.01212543 -7 6 C-7.63654342 4.6520257 -8.29605388 3.31403276 -9 2 C-6.525 2.99 -6.525 2.99 -4 4 C-3.34 3.34 -2.68 2.68 -2 2 C-1.34 1.34 -0.68 0.68 0 0 Z " fill="#433114" transform="translate(24,44)"/>
<path d="M0 0 C0.33 0.99 0.66 1.98 1 3 C2.65 3 4.3 3 6 3 C6 4.65 6 6.3 6 8 C4.68 8 3.36 8 2 8 C1.01 8.66 0.02 9.32 -1 10 C-1.99 9.34 -2.98 8.68 -4 8 C-4 7.01 -4 6.02 -4 5 C-4.66 4.67 -5.32 4.34 -6 4 C-5.195625 3.525625 -4.39125 3.05125 -3.5625 2.5625 C-1.15246512 1.23099846 -1.15246512 1.23099846 0 0 Z " fill="#D6261F" transform="translate(21,39)"/>
<path d="M0 0 C0.99 0 1.98 0 3 0 C3 0.99 3 1.98 3 3 C4.32 3.33 5.64 3.66 7 4 C6.34 5.65 5.68 7.3 5 9 C3.02 9 1.04 9 -1 9 C-1 8.01 -1 7.02 -1 6 C-2.32 5.34 -3.64 4.68 -5 4 C-5 3.34 -5 2.68 -5 2 C-3.35 2 -1.7 2 0 2 C0 1.34 0 0.68 0 0 Z " fill="#A78D2E" transform="translate(22,3)"/>
<path d="M0 0 C5.75 0.875 5.75 0.875 8 2 C8.625 4.5625 8.625 4.5625 9 7 C9.33 6.01 9.66 5.02 10 4 C10 4.66 10 5.32 10 6 C10.66 6 11.32 6 12 6 C12.33 7.32 12.66 8.64 13 10 C11.51800098 9.55090939 10.03944764 9.09043436 8.5625 8.625 C7.73878906 8.36976562 6.91507813 8.11453125 6.06640625 7.8515625 C4 7 4 7 3 5 C2.01 4.34 1.02 3.68 0 3 C0 2.01 0 1.02 0 0 Z " fill="#C7AF18" transform="translate(29,10)"/>
<path d="M0 0 C3.76428019 3.31087949 4.80132193 7.24690847 6 12 C6.1875 15.0625 6.1875 15.0625 6 17 C4.02 16.34 2.04 15.68 0 15 C0.08378906 14.25234375 0.16757812 13.5046875 0.25390625 12.734375 C0.35574219 11.74953125 0.45757812 10.7646875 0.5625 9.75 C0.66691406 8.77546875 0.77132812 7.8009375 0.87890625 6.796875 C0.98974468 4.2368648 0.77738092 2.41851841 0 0 Z " fill="#7D6F1C" transform="translate(43,17)"/>
<path d="M0 0 C2.00993705 3.01490557 2.72623341 5.2149927 3.625 8.6875 C3.88539062 9.68136719 4.14578125 10.67523438 4.4140625 11.69921875 C4.60742188 12.45847656 4.80078125 13.21773437 5 14 C3.35 14 1.7 14 0 14 C-0.33 13.01 -0.66 12.02 -1 11 C-0.34 11 0.32 11 1 11 C0.2575 9.63875 0.2575 9.63875 -0.5 8.25 C-2 5 -2 5 -2 1 C-1.34 0.67 -0.68 0.34 0 0 Z " fill="#866A1D" transform="translate(29,28)"/>
<path d="M0 0 C1.65 0.33 3.3 0.66 5 1 C5 1.66 5 2.32 5 3 C4.01 3.495 4.01 3.495 3 4 C3.061875 4.78375 3.12375 5.5675 3.1875 6.375 C3.125625 7.24125 3.06375 8.1075 3 9 C-0 11 -0 11 -3 11 C-2.4140625 4.84765625 -2.4140625 4.84765625 -2 3 C-1.34 2.67 -0.68 2.34 0 2 C0 1.34 0 0.68 0 0 Z " fill="#608E30" transform="translate(5,18)"/>
<path d="M0 0 C0.33 0.99 0.66 1.98 1 3 C2.32 3 3.64 3 5 3 C4.23771551 7.13811582 2.87015745 10.2596851 1 14 C0.67 12.35 0.34 10.7 0 9 C-0.33 10.98 -0.66 12.96 -1 15 C-1.33 15 -1.66 15 -2 15 C-2 11.37 -2 7.74 -2 4 C-1.34 4 -0.68 4 0 4 C0 2.68 0 1.36 0 0 Z " fill="#AC2E1B" transform="translate(10,22)"/>
<path d="M0 0 C0.66 0 1.32 0 2 0 C2 4.95 2 9.9 2 15 C1.01 15 0.02 15 -1 15 C-1.18451025 4.44191344 -1.18451025 4.44191344 0 0 Z " fill="#957822" transform="translate(24,20)"/>
<path d="M0 0 C0.33 0 0.66 0 1 0 C1 1.98 1 3.96 1 6 C2.65 6.33 4.3 6.66 6 7 C5.67 8.65 5.34 10.3 5 12 C3.35 12 1.7 12 0 12 C0 8.04 0 4.08 0 0 Z " fill="#634319" transform="translate(22,30)"/>
<path d="M0 0 C2.97 0.495 2.97 0.495 6 1 C5.67 1.99 5.34 2.98 5 4 C6.32 4.66 7.64 5.32 9 6 C9 6.99 9 7.98 9 9 C8.01 8.34 7.02 7.68 6 7 C6 6.34 6 5.68 6 5 C5.34 5 4.68 5 4 5 C4.33 5.99 4.66 6.98 5 8 C4.5625 10.6875 4.5625 10.6875 4 13 C3.67 13 3.34 13 3 13 C2.67 9.37 2.34 5.74 2 2 C1.34 2 0.68 2 0 2 C0 1.34 0 0.68 0 0 Z " fill="#92521B" transform="translate(28,13)"/>
<path d="M0 0 C0.99 0.33 1.98 0.66 3 1 C3 1.66 3 2.32 3 3 C2.34 3 1.68 3 1 3 C0.7525 3.639375 0.505 4.27875 0.25 4.9375 C-1 7 -1 7 -3.125 7.75 C-4.053125 7.87375 -4.053125 7.87375 -5 8 C-5 9.32 -5 10.64 -5 12 C-5.66 12 -6.32 12 -7 12 C-7.33 10.02 -7.66 8.04 -8 6 C-7.01 6.33 -6.02 6.66 -5 7 C-5 6.34 -5 5.68 -5 5 C-3.68 5 -2.36 5 -1 5 C-0.67 3.35 -0.34 1.7 0 0 Z " fill="#592C1B" transform="translate(15,14)"/>
<path d="M0 0 C0.99 0.33 1.98 0.66 3 1 C3 1.99 3 2.98 3 4 C4.65 4 6.3 4 8 4 C7.67 4.99 7.34 5.98 7 7 C7.99 7.66 8.98 8.32 10 9 C9.01 9.33 8.02 9.66 7 10 C7 10.66 7 11.32 7 12 C5.68 11.67 4.36 11.34 3 11 C3.66 9.35 4.32 7.7 5 6 C4.01 5.67 3.02 5.34 2 5 C2 4.01 2 3.02 2 2 C1.34 2 0.68 2 0 2 C0 1.34 0 0.68 0 0 Z " fill="#413A17" transform="translate(23,1)"/>
<path d="M0 0 C1.1577506 3.47325181 1.06866652 6.36067448 1 10 C0.01 9.67 -0.98 9.34 -2 9 C-3.6875 5.4375 -3.6875 5.4375 -5 2 C-3.35 1.34 -1.7 0.68 0 0 Z " fill="#2D271C" transform="translate(39,50)"/>
<path d="M0 0 C0.99 0.99 1.98 1.98 3 3 C5.09989652 4.17574711 5.09989652 4.17574711 7 5 C6.01 5.495 6.01 5.495 5 6 C4.67 6.99 4.34 7.98 4 9 C2.68 9 1.36 9 0 9 C0 6.03 0 3.06 0 0 Z " fill="#DA221F" transform="translate(27,39)"/>
<path d="M0 0 C1.32 1.65 2.64 3.3 4 5 C3.34 5.66 2.68 6.32 2 7 C2 6.01 2 5.02 2 4 C1.34 4 0.68 4 0 4 C0 4.66 0 5.32 0 6 C-0.66 6 -1.32 6 -2 6 C-2 6.66 -2 7.32 -2 8 C-1.34 8 -0.68 8 0 8 C-0.33 8.99 -0.66 9.98 -1 11 C-1 10.34 -1 9.68 -1 9 C-1.66 9 -2.32 9 -3 9 C-3.33 7.68 -3.66 6.36 -4 5 C-4.66 5 -5.32 5 -6 5 C-5.67 4.34 -5.34 3.68 -5 3 C-3.68 3 -2.36 3 -1 3 C-0.67 2.01 -0.34 1.02 0 0 Z " fill="#312B1A" transform="translate(9,39)"/>
<path d="M0 0 C-0.33 0.66 -0.66 1.32 -1 2 C-2.32 2 -3.64 2 -5 2 C-5.33 2.66 -5.66 3.32 -6 4 C-8.64860427 4.59355614 -11.29197322 4.74209269 -14 5 C-10.33750181 1.67045619 -5.02462001 -2.51231 0 0 Z " fill="#3C371D" transform="translate(22,9)"/>
<path d="M0 0 C1.32 0.99 2.64 1.98 4 3 C3.21625 3.61875 2.4325 4.2375 1.625 4.875 C-0.96837647 6.89858661 -0.96837647 6.89858661 -3 9 C-3.33 8.67 -3.66 8.34 -4 8 C-5.99958364 7.95919217 -8.00045254 7.95745644 -10 8 C-10 7.67 -10 7.34 -10 7 C-6.535 6.505 -6.535 6.505 -3 6 C-3 5.34 -3 4.68 -3 4 C-2.01 4 -1.02 4 0 4 C0 2.68 0 1.36 0 0 Z " fill="#1A1612" transform="translate(32,51)"/>
<path d="M0 0 C2.97 0.495 2.97 0.495 6 1 C6 1.99 6 2.98 6 4 C5.21625 4.12375 4.4325 4.2475 3.625 4.375 C0.85942178 4.79117993 0.85942178 4.79117993 -1 7 C-1.33 6.34 -1.66 5.68 -2 5 C-1.0625 2.375 -1.0625 2.375 0 0 Z " fill="#C3AC18" transform="translate(39,40)"/>
<path d="M0 0 C0.66 0.33 1.32 0.66 2 1 C2 2.65 2 4.3 2 6 C0.35 6.33 -1.3 6.66 -3 7 C-3.33 5.68 -3.66 4.36 -4 3 C-3.01 2.67 -2.02 2.34 -1 2 C-0.67 1.34 -0.34 0.68 0 0 Z " fill="#5E9A34" transform="translate(7,36)"/>
<path d="M0 0 C-1.32 0.33 -2.64 0.66 -4 1 C-4 2.32 -4 3.64 -4 5 C-4.66 5 -5.32 5 -6 5 C-6 6.65 -6 8.3 -6 10 C-6.33 10 -6.66 10 -7 10 C-7 6.7 -7 3.4 -7 0 C-4.3333581 -1.33332095 -2.83319697 -0.67102033 0 0 Z " fill="#401F1A" transform="translate(30,15)"/>
<path d="M0 0 C1.65 0 3.3 0 5 0 C5 0.66 5 1.32 5 2 C4.34 2 3.68 2 3 2 C3 2.66 3 3.32 3 4 C3.66 4 4.32 4 5 4 C5 4.66 5 5.32 5 6 C3.35 6.33 1.7 6.66 0 7 C0 6.34 0 5.68 0 5 C0.66 5 1.32 5 2 5 C2 4.34 2 3.68 2 3 C1.34 3 0.68 3 0 3 C0 2.01 0 1.02 0 0 Z " fill="#9B9926" transform="translate(2,30)"/>
<path d="M0 0 C0 1.32 0 2.64 0 4 C-0.99 4 -1.98 4 -3 4 C-3.66 4.66 -4.32 5.32 -5 6 C-5.99 5.34 -6.98 4.68 -8 4 C-8 3.34 -8 2.68 -8 2 C-2.25 0 -2.25 0 0 0 Z " fill="#8D8D21" transform="translate(19,11)"/>
<path d="M0 0 C2.64 0 5.28 0 8 0 C7.0022242 2.99332739 6.2477975 3.94766315 4 6 C4 4.68 4 3.36 4 2 C2.35 2.33 0.7 2.66 -1 3 C-0.67 2.01 -0.34 1.02 0 0 Z " fill="#241A14" transform="translate(24,47)"/>
<path d="M0 0 C0.66 0.33 1.32 0.66 2 1 C1.07347299 2.17539996 0.13336613 3.34010577 -0.8125 4.5 C-1.33457031 5.1496875 -1.85664062 5.799375 -2.39453125 6.46875 C-4 8 -4 8 -7 8 C-6.67 7.01 -6.34 6.02 -6 5 C-5.01 5 -4.02 5 -3 5 C-2.690625 4.360625 -2.38125 3.72125 -2.0625 3.0625 C-1 1 -1 1 0 0 Z " fill="#A1221B" transform="translate(38,39)"/>
<path d="M0 0 C1.32 1.65 2.64 3.3 4 5 C3.34 6.32 2.68 7.64 2 9 C1.01 8.67 0.02 8.34 -1 8 C-0.67 5.36 -0.34 2.72 0 0 Z " fill="#967C21" transform="translate(33,31)"/>
<path d="M0 0 C1.65 0 3.3 0 5 0 C5 1.65 5 3.3 5 5 C3.33333333 5 1.66666667 5 0 5 C0 3.35 0 1.7 0 0 Z " fill="#AC8D24" transform="translate(22,42)"/>
<path d="M0 0 C0.99 0.33 1.98 0.66 3 1 C3 3.31 3 5.62 3 8 C2.01 7.67 1.02 7.34 0 7 C0 4.69 0 2.38 0 0 Z " fill="#D7221E" transform="translate(37,26)"/>
<path d="M0 0 C0.66 0 1.32 0 2 0 C2 0.66 2 1.32 2 2 C2.99 2.33 3.98 2.66 5 3 C4.625 4.9375 4.625 4.9375 4 7 C3.01 7.495 3.01 7.495 2 8 C1.34 5.36 0.68 2.72 0 0 Z " fill="#D2201E" transform="translate(32,18)"/>
<path d="M0 0 C1.65 0.33 3.3 0.66 5 1 C5 1.66 5 2.32 5 3 C4.01 3.495 4.01 3.495 3 4 C3 4.66 3 5.32 3 6 C1.68 6 0.36 6 -1 6 C-1 5.34 -1 4.68 -1 4 C-0.34 4 0.32 4 1 4 C0.67 2.68 0.34 1.36 0 0 Z " fill="#9A9B23" transform="translate(5,18)"/>
<path d="M0 0 C1.73662334 3.22515763 2.8905928 6.51329166 4 10 C3.34 10 2.68 10 2 10 C2 9.34 2 8.68 2 8 C1.34 8 0.68 8 0 8 C0 5.36 0 2.72 0 0 Z " fill="#AE271B" transform="translate(26,29)"/>
<path d="M0 0 C0.99 0.33 1.98 0.66 3 1 C3 2.65 3 4.3 3 6 C1.68 6 0.36 6 -1 6 C-0.67 4.02 -0.34 2.04 0 0 Z " fill="#6A5D14" transform="translate(29,49)"/>
<path d="M0 0 C0.33 0 0.66 0 1 0 C1.36923077 4.55384615 1.36923077 4.55384615 -0.5 6.8125 C-0.995 7.204375 -1.49 7.59625 -2 8 C-3.32 7.34 -4.64 6.68 -6 6 C-4.68 6 -3.36 6 -2 6 C-1.34 4.02 -0.68 2.04 0 0 Z " fill="#B42F1B" transform="translate(36,36)"/>
<path d="M0 0 C0.99 0 1.98 0 3 0 C2.67 1.98 2.34 3.96 2 6 C1.01 5.67 0.02 5.34 -1 5 C-0.67 3.35 -0.34 1.7 0 0 Z " fill="#967C20" transform="translate(14,35)"/>
<path d="M0 0 C0.66 1.32 1.32 2.64 2 4 C0.68 3.67 -0.64 3.34 -2 3 C-1.67 4.32 -1.34 5.64 -1 7 C-1.99 6.34 -2.98 5.68 -4 5 C-2.25 1.125 -2.25 1.125 0 0 Z " fill="#39361C" transform="translate(7,15)"/>
</svg>
